<svg width="22" height="20" viewBox="0 0 22 20" fill="none" xmlns="http://www.w3.org/2000/svg">
<g clip-path="url(#clip0_153_949)">
<path d="M15.2871 8.125C15.2871 7.95924 15.3564 7.80027 15.4797 7.68306C15.603 7.56585 15.7702 7.5 15.9446 7.5H17.2597C17.4341 7.5 17.6013 7.56585 17.7246 7.68306C17.8479 7.80027 17.9172 7.95924 17.9172 8.125V9.375C17.9172 9.54076 17.8479 9.69973 17.7246 9.81694C17.6013 9.93415 17.4341 10 17.2597 10H15.9446C15.7702 10 15.603 9.93415 15.4797 9.81694C15.3564 9.69973 15.2871 9.54076 15.2871 9.375V8.125Z" fill="white"/>
<path d="M5.42423 0C5.59862 0 5.76586 0.065848 5.88917 0.183058C6.01248 0.300269 6.08176 0.45924 6.08176 0.625V1.25H16.6022V0.625C16.6022 0.45924 16.6715 0.300269 16.7948 0.183058C16.9181 0.065848 17.0853 0 17.2597 0C17.4341 0 17.6014 0.065848 17.7247 0.183058C17.848 0.300269 17.9173 0.45924 17.9173 0.625V1.25H19.2323C19.9299 1.25 20.5988 1.51339 21.0921 1.98223C21.5853 2.45107 21.8624 3.08696 21.8624 3.75V17.5C21.8624 18.163 21.5853 18.7989 21.0921 19.2678C20.5988 19.7366 19.9299 20 19.2323 20H3.45164C2.7541 20 2.08512 19.7366 1.59188 19.2678C1.09863 18.7989 0.821533 18.163 0.821533 17.5V3.75C0.821533 3.08696 1.09863 2.45107 1.59188 1.98223C2.08512 1.51339 2.7541 1.25 3.45164 1.25H4.7667V0.625C4.7667 0.45924 4.83598 0.300269 4.95929 0.183058C5.0826 0.065848 5.24984 0 5.42423 0V0ZM2.13659 5V17.5C2.13659 17.8315 2.27514 18.1495 2.52176 18.3839C2.76838 18.6183 3.10287 18.75 3.45164 18.75H19.2323C19.5811 18.75 19.9156 18.6183 20.1622 18.3839C20.4088 18.1495 20.5474 17.8315 20.5474 17.5V5H2.13659Z" fill="white"/>
</g>
<defs>
<clipPath id="clip0_153_949">
<rect width="21.0409" height="20" fill="white" transform="translate(0.821533)"/>
</clipPath>
</defs>
</svg>
