<svg width="50" height="50" viewBox="0 0 50 50" fill="none" xmlns="http://www.w3.org/2000/svg">
<path fill-rule="evenodd" clip-rule="evenodd" d="M37.6666 16.5556C37.6666 15.7157 38.0003 14.9103 38.5941 14.3164C39.188 13.7225 39.9934 13.3889 40.8333 13.3889C41.6731 13.3889 42.4786 13.7225 43.0725 14.3164C43.6663 14.9103 44 15.7157 44 16.5556V37.9865L40.8333 42.7365L37.6666 37.9865V16.5556ZM40.8333 15.5C40.5533 15.5 40.2849 15.6112 40.0869 15.8092C39.8889 16.0071 39.7777 16.2756 39.7777 16.5556V37.3469L40.8333 38.9302L41.8888 37.3469V16.5556C41.8888 16.2756 41.7776 16.0071 41.5797 15.8092C41.3817 15.6112 41.1132 15.5 40.8333 15.5Z" fill="white"/>
<path fill-rule="evenodd" clip-rule="evenodd" d="M42.9445 20.7776H38.7223V18.6665H42.9445V20.7776Z" fill="white"/>
<path fill-rule="evenodd" clip-rule="evenodd" d="M10.2222 8.11111C9.66232 8.11111 9.12535 8.33353 8.72944 8.72944C8.33353 9.12535 8.11111 9.66232 8.11111 10.2222V39.7778C8.11111 40.3377 8.33353 40.8747 8.72944 41.2706C9.12535 41.6665 9.66232 41.8889 10.2222 41.8889H31.3333C31.8932 41.8889 32.4302 41.6665 32.8261 41.2706C33.222 40.8747 33.4444 40.3377 33.4444 39.7778V10.2222C33.4444 9.66232 33.222 9.12535 32.8261 8.72944C32.4302 8.33353 31.8932 8.11111 31.3333 8.11111H10.2222ZM6 10.2222C6 9.10242 6.44484 8.02848 7.23666 7.23666C8.02848 6.44484 9.10242 6 10.2222 6H31.3333C32.4531 6 33.5271 6.44484 34.3189 7.23666C35.1107 8.02848 35.5556 9.10242 35.5556 10.2222V39.7778C35.5556 40.8976 35.1107 41.9715 34.3189 42.7633C33.5271 43.5552 32.4531 44 31.3333 44H10.2222C9.10242 44 8.02848 43.5552 7.23666 42.7633C6.44484 41.9715 6 40.8976 6 39.7778V10.2222Z" fill="white"/>
<path fill-rule="evenodd" clip-rule="evenodd" d="M20.7777 15.4999C20.7777 15.2199 20.8889 14.9515 21.0869 14.7535C21.2848 14.5555 21.5533 14.4443 21.8333 14.4443H30.2777C30.5577 14.4443 30.8261 14.5555 31.0241 14.7535C31.2221 14.9515 31.3333 15.2199 31.3333 15.4999C31.3333 15.7798 31.2221 16.0483 31.0241 16.2463C30.8261 16.4442 30.5577 16.5554 30.2777 16.5554H21.8333C21.5533 16.5554 21.2848 16.4442 21.0869 16.2463C20.8889 16.0483 20.7777 15.7798 20.7777 15.4999Z" fill="white"/>
<path fill-rule="evenodd" clip-rule="evenodd" d="M20.7777 19.7221C20.7777 19.4421 20.8889 19.1736 21.0869 18.9757C21.2848 18.7777 21.5533 18.6665 21.8333 18.6665H30.2777C30.5577 18.6665 30.8261 18.7777 31.0241 18.9757C31.2221 19.1736 31.3333 19.4421 31.3333 19.7221C31.3333 20.002 31.2221 20.2705 31.0241 20.4685C30.8261 20.6664 30.5577 20.7776 30.2777 20.7776H21.8333C21.5533 20.7776 21.2848 20.6664 21.0869 20.4685C20.8889 20.2705 20.7777 20.002 20.7777 19.7221Z" fill="white"/>
<path fill-rule="evenodd" clip-rule="evenodd" d="M20.7777 29.2223C20.7777 28.9424 20.8889 28.6739 21.0869 28.4759C21.2848 28.278 21.5533 28.1667 21.8333 28.1667H30.2777C30.5577 28.1667 30.8261 28.278 31.0241 28.4759C31.2221 28.6739 31.3333 28.9424 31.3333 29.2223C31.3333 29.5023 31.2221 29.7707 31.0241 29.9687C30.8261 30.1667 30.5577 30.2779 30.2777 30.2779H21.8333C21.5533 30.2779 21.2848 30.1667 21.0869 29.9687C20.8889 29.7707 20.7777 29.5023 20.7777 29.2223Z" fill="white"/>
<path fill-rule="evenodd" clip-rule="evenodd" d="M20.7777 33.4447C20.7777 33.1648 20.8889 32.8963 21.0869 32.6983C21.2848 32.5004 21.5533 32.3892 21.8333 32.3892H30.2777C30.5577 32.3892 30.8261 32.5004 31.0241 32.6983C31.2221 32.8963 31.3333 33.1648 31.3333 33.4447C31.3333 33.7247 31.2221 33.9932 31.0241 34.1911C30.8261 34.3891 30.5577 34.5003 30.2777 34.5003H21.8333C21.5533 34.5003 21.2848 34.3891 21.0869 34.1911C20.8889 33.9932 20.7777 33.7247 20.7777 33.4447Z" fill="white"/>
<path fill-rule="evenodd" clip-rule="evenodd" d="M12.3333 29.2222V32.3889H15.4999V29.2222H12.3333ZM11.2777 27.1111H16.5555C16.8355 27.1111 17.1039 27.2223 17.3019 27.4202C17.4998 27.6182 17.6111 27.8867 17.6111 28.1666V33.4444C17.6111 33.7244 17.4998 33.9929 17.3019 34.1908C17.1039 34.3888 16.8355 34.5 16.5555 34.5H11.2777C10.9978 34.5 10.7293 34.3888 10.5313 34.1908C10.3334 33.9929 10.2222 33.7244 10.2222 33.4444V28.1666C10.2222 27.8867 10.3334 27.6182 10.5313 27.4202C10.7293 27.2223 10.9978 27.1111 11.2777 27.1111Z" fill="white"/>
<path fill-rule="evenodd" clip-rule="evenodd" d="M18.3575 14.7536C18.5554 14.9516 18.6665 15.22 18.6665 15.4999C18.6665 15.7798 18.5554 16.0482 18.3575 16.2462L13.389 21.2147L10.5316 18.3573C10.4308 18.2599 10.3504 18.1435 10.295 18.0147C10.2397 17.8859 10.2106 17.7474 10.2094 17.6072C10.2082 17.4671 10.2349 17.3281 10.288 17.1983C10.341 17.0686 10.4194 16.9508 10.5185 16.8517C10.6176 16.7526 10.7355 16.6742 10.8652 16.6211C10.9949 16.568 11.1339 16.5413 11.2741 16.5425C11.4142 16.5438 11.5527 16.5729 11.6815 16.6282C11.8103 16.6835 11.9268 16.7639 12.0242 16.8647L13.389 18.2296L16.8649 14.7536C17.0629 14.5557 17.3313 14.4446 17.6112 14.4446C17.8911 14.4446 18.1595 14.5557 18.3575 14.7536Z" fill="white"/>
</svg>
