<svg width="30" height="30" viewBox="0 0 30 30" fill="none" xmlns="http://www.w3.org/2000/svg">
<path d="M23.4375 25H6.5625C5.52483 25.0001 4.52646 24.6031 3.77221 23.8904C3.01796 23.1778 2.565 22.2035 2.50625 21.1675L2.5 20.9375V7.8125C2.49991 7.09984 2.77037 6.41372 3.25671 5.89281C3.74305 5.37189 4.40901 5.05503 5.12 5.00625L5.3125 5H20.9375C21.6502 4.99991 22.3363 5.27037 22.8572 5.75671C23.3781 6.24305 23.695 6.90901 23.7438 7.62L23.75 7.8125V8.75H24.6875C25.4002 8.74991 26.0863 9.02037 26.6072 9.50671C27.1281 9.99305 27.445 10.659 27.4938 11.37L27.5 11.5625V20.9375C27.5001 21.9752 27.1031 22.9735 26.3904 23.7278C25.6778 24.482 24.7035 24.935 23.6675 24.9938L23.4375 25H6.5625H23.4375ZM6.5625 23.125H23.4375C23.9867 23.125 24.5158 22.9183 24.9196 22.5462C25.3235 22.174 25.5726 21.6636 25.6175 21.1162L25.625 20.9375V11.5625C25.625 11.336 25.5429 11.1171 25.394 10.9463C25.2451 10.7756 25.0394 10.6646 24.815 10.6337L24.6875 10.625H23.75V20.3125C23.75 20.539 23.6679 20.7579 23.519 20.9287C23.3701 21.0994 23.1644 21.2104 22.94 21.2412L22.8125 21.25C22.586 21.25 22.3671 21.1679 22.1963 21.019C22.0256 20.8701 21.9146 20.6644 21.8838 20.44L21.875 20.3125V7.8125C21.875 7.58595 21.7929 7.36707 21.644 7.19634C21.4951 7.0256 21.2894 6.91456 21.065 6.88375L20.9375 6.875H5.3125C5.08595 6.87501 4.86707 6.95705 4.69634 7.10596C4.5256 7.25486 4.41456 7.46056 4.38375 7.685L4.375 7.8125V20.9375C4.37502 21.4865 4.58146 22.0154 4.95335 22.4192C5.32524 22.8231 5.83537 23.0723 6.3825 23.1175L6.5625 23.125H23.4375H6.5625ZM15.3075 18.125H19.065C19.3025 18.1251 19.5312 18.2153 19.7047 18.3775C19.8783 18.5396 19.9838 18.7616 20 18.9986C20.0162 19.2356 19.9419 19.4699 19.792 19.6541C19.6421 19.8384 19.4278 19.9589 19.1925 19.9913L19.065 20H15.3075C15.07 19.9999 14.8413 19.9097 14.6678 19.7475C14.4942 19.5854 14.3887 19.3634 14.3725 19.1264C14.3563 18.8894 14.4306 18.6551 14.5805 18.4709C14.7304 18.2866 14.9447 18.1661 15.18 18.1337L15.3075 18.125H19.065H15.3075ZM11.5538 13.7563C11.8024 13.7563 12.0408 13.855 12.2167 14.0308C12.3925 14.2067 12.4913 14.4451 12.4913 14.6938V19.0625C12.4913 19.3111 12.3925 19.5496 12.2167 19.7254C12.0408 19.9012 11.8024 20 11.5538 20H7.185C6.93636 20 6.6979 19.9012 6.52209 19.7254C6.34627 19.5496 6.2475 19.3111 6.2475 19.0625V14.6938C6.2475 14.4451 6.34627 14.2067 6.52209 14.0308C6.6979 13.855 6.93636 13.7563 7.185 13.7563H11.5538ZM10.6163 15.6313H8.1225V18.125H10.6163V15.6313ZM15.3075 13.7563H19.065C19.3025 13.7563 19.5312 13.8466 19.7047 14.0087C19.8783 14.1709 19.9838 14.3929 20 14.6299C20.0162 14.8668 19.9419 15.1011 19.792 15.2854C19.6421 15.4696 19.4278 15.5901 19.1925 15.6225L19.065 15.6313H15.3075C15.0683 15.6337 14.8372 15.5446 14.6615 15.3822C14.4859 15.2198 14.3789 14.9963 14.3626 14.7577C14.3463 14.519 14.4219 14.2831 14.5739 14.0983C14.7258 13.9135 14.9427 13.7939 15.18 13.7638L15.3075 13.7563H19.065H15.3075ZM7.185 9.3775H19.065C19.3042 9.37507 19.5353 9.46418 19.711 9.62659C19.8866 9.789 19.9936 10.0124 20.0099 10.2511C20.0262 10.4898 19.9506 10.7256 19.7986 10.9104C19.6467 11.0952 19.4298 11.2149 19.1925 11.245L19.065 11.2525H7.185C6.94747 11.2524 6.71882 11.1622 6.54526 11C6.3717 10.8379 6.26616 10.6159 6.24997 10.3789C6.23378 10.1419 6.30814 9.90764 6.45804 9.72338C6.60794 9.53912 6.82219 9.41863 7.0575 9.38625L7.185 9.3775H19.065H7.185Z" fill="#54FF98"/>
</svg>
