<svg width="30" height="30" viewBox="0 0 30 30" fill="none" xmlns="http://www.w3.org/2000/svg">
<path d="M15 2.495C17.4333 2.4918 19.7722 3.43606 21.5212 5.1277C23.2703 6.81935 24.292 9.12548 24.37 11.5575L24.375 11.87V16.9913L26.1 20.9363C26.2037 21.174 26.2467 21.4338 26.2249 21.6922C26.2032 21.9507 26.1174 22.1997 25.9754 22.4167C25.8334 22.6338 25.6396 22.8121 25.4115 22.9355C25.1834 23.0589 24.9281 23.1236 24.6687 23.1238L18.75 23.1275C18.7513 24.1037 18.3718 25.042 17.6922 25.7429C17.0126 26.4437 16.0865 26.8519 15.1107 26.8808C14.1348 26.9096 13.1863 26.5567 12.4665 25.8972C11.7467 25.2376 11.3126 24.3234 11.2562 23.3488L11.25 23.1238H5.34374C5.08476 23.1234 4.8299 23.0588 4.60206 22.9357C4.37422 22.8125 4.18053 22.6347 4.03839 22.4182C3.89625 22.2017 3.81011 21.9533 3.7877 21.6953C3.76528 21.4373 3.80731 21.1778 3.90999 20.94L5.62499 16.9925V11.87C5.62499 6.67625 9.81499 2.495 15 2.495V2.495ZM16.875 23.125L13.125 23.1275C13.1249 23.6091 13.3102 24.0723 13.6424 24.4211C13.9746 24.7698 14.4282 24.9773 14.9093 25.0006C15.3903 25.0239 15.8619 24.8612 16.2263 24.5462C16.5906 24.2312 16.8198 23.7881 16.8662 23.3088L16.8737 23.125H16.875ZM15 4.37C10.85 4.37 7.49999 7.7125 7.49999 11.87V17.3825L5.81999 21.25H24.1912L22.5 17.3838V11.8863L22.495 11.605C22.4301 9.66178 21.6115 7.82007 20.2126 6.46971C18.8137 5.11935 16.9443 4.36632 15 4.37V4.37Z" fill="#54FF98"/>
</svg>
