<svg width="50" height="50" viewBox="0 0 50 50" fill="none" xmlns="http://www.w3.org/2000/svg">
<path d="M42.9688 10.1562V39.8438C42.9688 40.6726 42.6395 41.4674 42.0535 42.0535C41.4674 42.6395 40.6726 42.9688 39.8438 42.9688H26.4844C26.07 42.9688 25.6725 42.8041 25.3795 42.5111C25.0865 42.2181 24.9219 41.8207 24.9219 41.4062C24.9219 40.9918 25.0865 40.5944 25.3795 40.3014C25.6725 40.0084 26.07 39.8438 26.4844 39.8438H39.8438V10.1562H10.1563V27.9883C10.1563 28.4027 9.99163 28.8001 9.69861 29.0931C9.40558 29.3862 9.00815 29.5508 8.59375 29.5508C8.17935 29.5508 7.78192 29.3862 7.4889 29.0931C7.19587 28.8001 7.03125 28.4027 7.03125 27.9883V10.1562C7.03125 9.32745 7.36049 8.53259 7.94654 7.94654C8.53259 7.36049 9.32745 7.03125 10.1563 7.03125H39.8438C40.6726 7.03125 41.4674 7.36049 42.0535 7.94654C42.6395 8.53259 42.9688 9.32745 42.9688 10.1562ZM26.1133 28.5742C25.817 28.2808 25.417 28.1162 25 28.1162C24.5831 28.1162 24.183 28.2808 23.8867 28.5742L12.5 39.9805L7.36328 34.8242C7.0597 34.5751 6.67428 34.4477 6.28201 34.467C5.88975 34.4863 5.51867 34.6507 5.24096 34.9285C4.96324 35.2062 4.79876 35.5772 4.77949 35.9695C4.76023 36.3618 4.88756 36.7472 5.13672 37.0508L11.3867 43.3008C11.6854 43.5896 12.0846 43.751 12.5 43.751C12.9154 43.751 13.3146 43.5896 13.6133 43.3008L26.1133 30.8008C26.4067 30.5045 26.5713 30.1045 26.5713 29.6875C26.5713 29.2705 26.4067 28.8705 26.1133 28.5742Z" fill="white"/>
</svg>

