<svg width="30" height="30" viewBox="0 0 30 30" fill="none" xmlns="http://www.w3.org/2000/svg">
<path fill-rule="evenodd" clip-rule="evenodd" d="M15 26.25C21.2131 26.25 26.25 21.2131 26.25 15C26.25 8.78688 21.2131 3.75 15 3.75C8.78688 3.75 3.75 8.78688 3.75 15C3.75 21.2131 8.78688 26.25 15 26.25ZM15 27.5C21.9037 27.5 27.5 21.9037 27.5 15C27.5 8.09625 21.9037 2.5 15 2.5C8.09625 2.5 2.5 8.09625 2.5 15C2.5 21.9037 8.09625 27.5 15 27.5Z" fill="#54FF98"/>
<path d="M7.5 22.2689C7.5 21.6232 7.9825 21.0776 8.625 21.0064C13.4469 20.4726 16.575 20.5207 21.3862 21.0182C21.6265 21.0435 21.8542 21.1381 22.0416 21.2906C22.2289 21.4431 22.3678 21.6469 22.4412 21.8771C22.5147 22.1072 22.5195 22.3537 22.4551 22.5866C22.3908 22.8194 22.26 23.0285 22.0787 23.1882C16.4006 28.1376 13.1556 28.0695 7.9 23.1932C7.64375 22.9557 7.5 22.6182 7.5 22.2695V22.2689Z" fill="#54FF98"/>
<path fill-rule="evenodd" clip-rule="evenodd" d="M21.3219 21.6393C16.5488 21.1455 13.4656 21.0993 8.69313 21.6274C8.37188 21.663 8.125 21.9374 8.125 22.2693C8.125 22.448 8.19938 22.6174 8.325 22.7349C10.93 25.1512 12.9038 26.243 14.8331 26.2499C16.7694 26.2568 18.8494 25.1737 21.6681 22.7174C21.7577 22.6377 21.8221 22.5337 21.8537 22.4181C21.8852 22.3024 21.8825 22.1801 21.8458 22.0659C21.8092 21.9518 21.7401 21.8508 21.6471 21.7752C21.5541 21.6995 21.4411 21.6525 21.3219 21.6399V21.6393ZM8.55625 20.3849C13.4288 19.8455 16.6025 19.8943 21.4513 20.3962C21.8127 20.4339 22.1553 20.5762 22.4371 20.8056C22.7189 21.0351 22.9277 21.3417 23.038 21.688C23.1482 22.0343 23.1551 22.4052 23.0577 22.7553C22.9604 23.1054 22.7631 23.4196 22.49 23.6593C19.6306 26.1518 17.2494 27.5093 14.8294 27.4999C12.4025 27.4912 10.1263 26.1105 7.47563 23.6512C7.28585 23.4744 7.13456 23.2604 7.03122 23.0225C6.92787 22.7847 6.8747 22.528 6.875 22.2687C6.87409 21.8027 7.04513 21.3528 7.35536 21.005C7.66558 20.6573 8.09318 20.4363 8.55625 20.3843V20.3849Z" fill="#54FF98"/>
<path d="M20 12.5C20 13.8261 19.4732 15.0979 18.5355 16.0355C17.5979 16.9732 16.3261 17.5 15 17.5C13.6739 17.5 12.4021 16.9732 11.4645 16.0355C10.5268 15.0979 10 13.8261 10 12.5C10 11.1739 10.5268 9.90215 11.4645 8.96447C12.4021 8.02678 13.6739 7.5 15 7.5C16.3261 7.5 17.5979 8.02678 18.5355 8.96447C19.4732 9.90215 20 11.1739 20 12.5V12.5Z" fill="#54FF98"/>
<path fill-rule="evenodd" clip-rule="evenodd" d="M15 16.25C15.9946 16.25 16.9484 15.8549 17.6517 15.1517C18.3549 14.4484 18.75 13.4946 18.75 12.5C18.75 11.5054 18.3549 10.5516 17.6517 9.84835C16.9484 9.14509 15.9946 8.75 15 8.75C14.0054 8.75 13.0516 9.14509 12.3483 9.84835C11.6451 10.5516 11.25 11.5054 11.25 12.5C11.25 13.4946 11.6451 14.4484 12.3483 15.1517C13.0516 15.8549 14.0054 16.25 15 16.25V16.25ZM15 17.5C16.3261 17.5 17.5979 16.9732 18.5355 16.0355C19.4732 15.0979 20 13.8261 20 12.5C20 11.1739 19.4732 9.90215 18.5355 8.96447C17.5979 8.02678 16.3261 7.5 15 7.5C13.6739 7.5 12.4021 8.02678 11.4645 8.96447C10.5268 9.90215 10 11.1739 10 12.5C10 13.8261 10.5268 15.0979 11.4645 16.0355C12.4021 16.9732 13.6739 17.5 15 17.5V17.5Z" fill="#54FF98"/>
</svg>
