<svg width="328" height="328" viewBox="0 0 328 328" fill="none" xmlns="http://www.w3.org/2000/svg">
<path fill-rule="evenodd" clip-rule="evenodd" d="M239.167 273.333C248.228 273.333 256.919 269.734 263.326 263.326C269.734 256.919 273.333 248.228 273.333 239.167C273.333 230.105 269.734 221.415 263.326 215.007C256.919 208.6 248.228 205 239.167 205C230.105 205 221.415 208.6 215.007 215.007C208.6 221.415 205 230.105 205 239.167C205 248.228 208.6 256.919 215.007 263.326C221.415 269.734 230.105 273.333 239.167 273.333ZM239.167 287C251.853 287 264.019 281.961 272.99 272.99C281.96 264.02 287 251.853 287 239.167C287 226.481 281.96 214.314 272.99 205.344C264.019 196.373 251.853 191.333 239.167 191.333C226.48 191.333 214.314 196.373 205.343 205.344C196.373 214.314 191.333 226.481 191.333 239.167C191.333 251.853 196.373 264.02 205.343 272.99C214.314 281.961 226.48 287 239.167 287V287Z" fill="black"/>
<path fill-rule="evenodd" clip-rule="evenodd" d="M239.167 215.25C240.979 215.25 242.717 215.97 243.998 217.251C245.28 218.533 246 220.271 246 222.083V236.338L250.831 241.169C252.076 242.458 252.765 244.184 252.749 245.975C252.733 247.767 252.015 249.481 250.748 250.748C249.481 252.015 247.767 252.734 245.975 252.749C244.184 252.765 242.458 252.076 241.169 250.831L232.333 241.996V222.083C232.333 220.271 233.053 218.533 234.335 217.251C235.616 215.97 237.354 215.25 239.167 215.25ZM95.6666 157.167H81.9999V170.833H95.6666V157.167ZM81.9999 143.5C78.3753 143.5 74.8991 144.94 72.3361 147.503C69.7731 150.066 68.3333 153.542 68.3333 157.167V170.833C68.3333 174.458 69.7731 177.934 72.3361 180.497C74.8991 183.06 78.3753 184.5 81.9999 184.5H95.6666C99.2912 184.5 102.767 183.06 105.33 180.497C107.893 177.934 109.333 174.458 109.333 170.833V157.167C109.333 153.542 107.893 150.066 105.33 147.503C102.767 144.94 99.2912 143.5 95.6666 143.5H81.9999ZM150.333 157.167H136.667V170.833H150.333V157.167ZM136.667 143.5C133.042 143.5 129.566 144.94 127.003 147.503C124.44 150.066 123 153.542 123 157.167V170.833C123 174.458 124.44 177.934 127.003 180.497C129.566 183.06 133.042 184.5 136.667 184.5H150.333C153.958 184.5 157.434 183.06 159.997 180.497C162.56 177.934 164 174.458 164 170.833V157.167C164 153.542 162.56 150.066 159.997 147.503C157.434 144.94 153.958 143.5 150.333 143.5H136.667ZM205 157.167H191.333V170.833H205V157.167ZM191.333 143.5C187.709 143.5 184.232 144.94 181.669 147.503C179.106 150.066 177.667 153.542 177.667 157.167V170.833C177.667 174.458 179.106 177.934 181.669 180.497C184.232 183.06 187.709 184.5 191.333 184.5H205C208.625 184.5 212.101 183.06 214.664 180.497C217.227 177.934 218.667 174.458 218.667 170.833V157.167C218.667 153.542 217.227 150.066 214.664 147.503C212.101 144.94 208.625 143.5 205 143.5H191.333ZM95.6666 211.833H81.9999V225.5H95.6666V211.833ZM81.9999 198.167C78.3753 198.167 74.8991 199.607 72.3361 202.17C69.7731 204.733 68.3333 208.209 68.3333 211.833V225.5C68.3333 229.125 69.7731 232.601 72.3361 235.164C74.8991 237.727 78.3753 239.167 81.9999 239.167H95.6666C99.2912 239.167 102.767 237.727 105.33 235.164C107.893 232.601 109.333 229.125 109.333 225.5V211.833C109.333 208.209 107.893 204.733 105.33 202.17C102.767 199.607 99.2912 198.167 95.6666 198.167H81.9999ZM150.333 211.833H136.667V225.5H150.333V211.833ZM136.667 198.167C133.042 198.167 129.566 199.607 127.003 202.17C124.44 204.733 123 208.209 123 211.833V225.5C123 229.125 124.44 232.601 127.003 235.164C129.566 237.727 133.042 239.167 136.667 239.167H150.333C153.958 239.167 157.434 237.727 159.997 235.164C162.56 232.601 164 229.125 164 225.5V211.833C164 208.209 162.56 204.733 159.997 202.17C157.434 199.607 153.958 198.167 150.333 198.167H136.667Z" fill="black"/>
<path fill-rule="evenodd" clip-rule="evenodd" d="M54.6667 82C54.6667 80.1877 55.3866 78.4496 56.6681 77.1681C57.9496 75.8866 59.6877 75.1667 61.5 75.1667H95.6667V61.5H61.5C56.0631 61.5 50.8488 63.6598 47.0043 67.5043C43.1598 71.3488 41 76.5631 41 82V246C41 251.437 43.1598 256.651 47.0043 260.496C50.8488 264.34 56.0631 266.5 61.5 266.5H199.909C196.995 262.326 194.769 257.712 193.315 252.833H61.5C59.6877 252.833 57.9496 252.113 56.6681 250.832C55.3866 249.55 54.6667 247.812 54.6667 246V82ZM232.333 191.812C236.866 191.163 241.468 191.163 246 191.812V82C246 76.5631 243.84 71.3488 239.996 67.5043C236.151 63.6598 230.937 61.5 225.5 61.5H205V75.1667H225.5C227.312 75.1667 229.05 75.8866 230.332 77.1681C231.613 78.4496 232.333 80.1877 232.333 82V191.812ZM109.333 75.1667H181.514V61.5H109.333V75.1667Z" fill="black"/>
<path fill-rule="evenodd" clip-rule="evenodd" d="M246 123H54.6667V109.333H246V123Z" fill="black"/>
<path d="M82 47.8333C82 46.021 82.7199 44.2829 84.0014 43.0014C85.2829 41.7199 87.021 41 88.8333 41C90.6456 41 92.3837 41.7199 93.6652 43.0014C94.9467 44.2829 95.6667 46.021 95.6667 47.8333V82C95.6667 83.8123 94.9467 85.5504 93.6652 86.8319C92.3837 88.1134 90.6456 88.8333 88.8333 88.8333C87.021 88.8333 85.2829 88.1134 84.0014 86.8319C82.7199 85.5504 82 83.8123 82 82V47.8333ZM177.667 47.8333C177.667 46.021 178.387 44.2829 179.668 43.0014C180.95 41.7199 182.688 41 184.5 41C186.312 41 188.05 41.7199 189.332 43.0014C190.613 44.2829 191.333 46.021 191.333 47.8333V82C191.333 83.8123 190.613 85.5504 189.332 86.8319C188.05 88.1134 186.312 88.8333 184.5 88.8333C182.688 88.8333 180.95 88.1134 179.668 86.8319C178.387 85.5504 177.667 83.8123 177.667 82V47.8333Z" fill="black"/>
</svg>
