<svg width="30" height="30" viewBox="0 0 30 30" fill="none" xmlns="http://www.w3.org/2000/svg">
<path d="M21.9712 23.75L16.0125 17.7925C14.7114 18.6508 13.138 18.9958 11.5972 18.7606C10.0563 18.5254 8.65748 17.7268 7.67165 16.5194C6.68583 15.3121 6.18311 13.7818 6.26086 12.225C6.33861 10.6682 6.99128 9.19566 8.0925 8.0925C9.19546 6.99087 10.668 6.33777 12.2249 6.25969C13.7818 6.18161 15.3123 6.68411 16.52 7.66986C17.7276 8.65561 18.5265 10.0545 18.7618 11.5955C18.9971 13.1365 18.6522 14.71 17.7937 16.0113L23.75 21.9713L21.9712 23.75ZM12.5425 8.7675C11.5413 8.76684 10.5809 9.16393 9.87244 9.87141C9.16402 10.5789 8.76566 11.5388 8.765 12.54C8.76433 13.5412 9.16142 14.5016 9.8689 15.2101C10.5764 15.9185 11.5363 16.3168 12.5375 16.3175C13.0332 16.3178 13.5242 16.2205 13.9823 16.0311C14.4404 15.8417 14.8568 15.5639 15.2076 15.2136C15.5583 14.8633 15.8367 14.4473 16.0267 13.9894C16.2167 13.5316 16.3147 13.0407 16.315 12.545C16.3153 12.0493 16.218 11.5583 16.0286 11.1002C15.8392 10.6421 15.5614 10.2257 15.2111 9.87494C14.8608 9.52417 14.4448 9.24583 13.9869 9.05582C13.5291 8.8658 13.0382 8.76783 12.5425 8.7675Z" fill="#434343"/>
</svg>
