<svg width="50" height="50" viewBox="0 0 50 50" fill="none" xmlns="http://www.w3.org/2000/svg">
<path d="M42.1875 8.20312H7.8125C7.0873 8.20313 6.3918 8.49121 5.87901 9.00401C5.36621 9.5168 5.07813 10.2123 5.07812 10.9375V39.0625C5.07812 39.7877 5.36621 40.4832 5.87901 40.996C6.3918 41.5088 7.0873 41.7969 7.8125 41.7969H10.4297C10.6502 41.7966 10.8661 41.7341 11.0526 41.6167C11.2392 41.4992 11.3888 41.3315 11.4844 41.1328C12.2753 39.4605 13.5249 38.0472 15.0878 37.0575C16.6507 36.0678 18.4626 35.5423 20.3125 35.5423C22.1624 35.5423 23.9743 36.0678 25.5372 37.0575C27.1001 38.0472 28.3497 39.4605 29.1406 41.1328C29.2362 41.3315 29.3858 41.4992 29.5724 41.6167C29.7589 41.7341 29.9748 41.7966 30.1953 41.7969H42.1875C42.9127 41.7969 43.6082 41.5088 44.121 40.996C44.6338 40.4832 44.9219 39.7877 44.9219 39.0625V10.9375C44.9219 10.2123 44.6338 9.5168 44.121 9.00401C43.6082 8.49121 42.9127 8.20313 42.1875 8.20312ZM15.2344 28.125C15.2344 27.1206 15.5322 26.1388 16.0902 25.3037C16.6482 24.4687 17.4413 23.8178 18.3692 23.4334C19.2971 23.0491 20.3181 22.9485 21.3032 23.1444C22.2883 23.3404 23.1931 23.824 23.9033 24.5342C24.6135 25.2444 25.0971 26.1492 25.293 27.1343C25.489 28.1194 25.3884 29.1404 25.0041 30.0683C24.6197 30.9962 23.9688 31.7893 23.1338 32.3473C22.2987 32.9053 21.3169 33.2031 20.3125 33.2031C18.9673 33.198 17.6786 32.6613 16.7274 31.7101C15.7762 30.7589 15.2395 29.4702 15.2344 28.125V28.125ZM42.5781 39.0625C42.5781 39.1661 42.537 39.2655 42.4637 39.3387C42.3905 39.412 42.2911 39.4531 42.1875 39.4531H30.918C29.5507 37.0001 27.377 35.0956 24.7656 34.0625C26.0118 33.1279 26.9323 31.8248 27.3968 30.338C27.8612 28.8511 27.8461 27.2558 27.3535 25.778C26.8609 24.3002 25.9158 23.0149 24.6521 22.1041C23.3885 21.1932 21.8702 20.7031 20.3125 20.7031C18.7548 20.7031 17.2365 21.1932 15.9729 22.1041C14.7092 23.0149 13.7641 24.3002 13.2715 25.778C12.7789 27.2558 12.7638 28.8511 13.2282 30.338C13.6927 31.8248 14.6132 33.1279 15.8594 34.0625C13.248 35.0956 11.0743 37.0001 9.70703 39.4531H7.8125C7.71043 39.4484 7.61381 39.4057 7.54156 39.3334C7.46931 39.2612 7.42663 39.1646 7.42188 39.0625V10.9375C7.42188 10.8339 7.46303 10.7345 7.53629 10.6613C7.60954 10.588 7.7089 10.5469 7.8125 10.5469H42.1875C42.2911 10.5469 42.3905 10.588 42.4637 10.6613C42.537 10.7345 42.5781 10.8339 42.5781 10.9375V39.0625ZM38.6719 15.625V34.375C38.6719 34.6858 38.5484 34.9839 38.3286 35.2036C38.1089 35.4234 37.8108 35.5469 37.5 35.5469H34.375C34.0642 35.5469 33.7661 35.4234 33.5464 35.2036C33.3266 34.9839 33.2031 34.6858 33.2031 34.375C33.2031 34.0642 33.3266 33.7661 33.5464 33.5464C33.7661 33.3266 34.0642 33.2031 34.375 33.2031H36.3281V16.7969H13.6719V18.75C13.6719 19.0608 13.5484 19.3589 13.3286 19.5786C13.1089 19.7984 12.8108 19.9219 12.5 19.9219C12.1892 19.9219 11.8911 19.7984 11.6714 19.5786C11.4516 19.3589 11.3281 19.0608 11.3281 18.75V15.625C11.3281 15.3142 11.4516 15.0161 11.6714 14.7964C11.8911 14.5766 12.1892 14.4531 12.5 14.4531H37.5C37.8108 14.4531 38.1089 14.5766 38.3286 14.7964C38.5484 15.0161 38.6719 15.3142 38.6719 15.625Z" fill="white"/>
</svg>
