<svg width="44" height="44" viewBox="0 0 44 44" fill="none" xmlns="http://www.w3.org/2000/svg">
    <path d="M15.5833 38.4999H9.33333C7.1232 38.4999 5.00358 37.6219 3.44078 36.0591C1.87797 34.4963 1 32.3767 1 30.1666V11.4166C1 9.20645 1.87797 7.08683 3.44078 5.52403C5.00358 3.96123 7.1232 3.08325 9.33333 3.08325H32.25C34.4601 3.08325 36.5798 3.96123 38.1426 5.52403C39.7054 7.08683 40.5833 9.20645 40.5833 11.4166V17.6666" stroke="white" stroke-width="2" stroke-linecap="round" stroke-linejoin="round"/>
    <path d="M13.5 1V5.16667" stroke="white" stroke-width="2" stroke-linecap="round" stroke-linejoin="round"/>
    <path d="M28.0833 1V5.16667" stroke="white" stroke-width="2" stroke-linecap="round" stroke-linejoin="round"/>
    <path d="M1 13.5H40.5833" stroke="white" stroke-width="2" stroke-linecap="round" stroke-linejoin="round"/>
    <path d="M35.375 29.4229L32.25 32.5479" stroke="white" stroke-width="2" stroke-linecap="round" stroke-linejoin="round"/>
    <path d="M32.25 42.6666C38.0029 42.6666 42.6666 38.0029 42.6666 32.2499C42.6666 26.497 38.0029 21.8333 32.25 21.8333C26.497 21.8333 21.8333 26.497 21.8333 32.2499C21.8333 38.0029 26.497 42.6666 32.25 42.6666Z" stroke="white" stroke-width="2" stroke-linecap="round" stroke-linejoin="round"/>
</svg>
