<svg width="30" height="30" viewBox="0 0 30 30" fill="none" xmlns="http://www.w3.org/2000/svg">
<path d="M11.25 25H7.5C6.17392 25 4.90215 24.4732 3.96447 23.5355C3.02678 22.5978 2.5 21.3261 2.5 20V8.75C2.5 7.42392 3.02678 6.15215 3.96447 5.21447C4.90215 4.27678 6.17392 3.75 7.5 3.75H21.25C22.5761 3.75 23.8479 4.27678 24.7855 5.21447C25.7232 6.15215 26.25 7.42392 26.25 8.75V12.5" stroke="#54FF98" stroke-width="2" stroke-linecap="round" stroke-linejoin="round"/>
<path d="M10 2.5V5" stroke="#54FF98" stroke-width="2" stroke-linecap="round" stroke-linejoin="round"/>
<path d="M18.75 2.5V5" stroke="#54FF98" stroke-width="2" stroke-linecap="round" stroke-linejoin="round"/>
<path d="M2.5 10H26.25" stroke="#54FF98" stroke-width="2" stroke-linecap="round" stroke-linejoin="round"/>
<path d="M23.125 19.5538L21.25 21.4288" stroke="#54FF98" stroke-width="2" stroke-linecap="round" stroke-linejoin="round"/>
<path d="M21.25 27.5C24.7018 27.5 27.5 24.7018 27.5 21.25C27.5 17.7982 24.7018 15 21.25 15C17.7982 15 15 17.7982 15 21.25C15 24.7018 17.7982 27.5 21.25 27.5Z" stroke="#54FF98" stroke-width="2" stroke-linecap="round" stroke-linejoin="round"/>
</svg>
