<svg width="20" height="20" viewBox="0 0 20 20" fill="none" xmlns="http://www.w3.org/2000/svg">
<path d="M3.125 10.9375C3.64277 10.9375 4.0625 10.5178 4.0625 10C4.0625 9.48223 3.64277 9.0625 3.125 9.0625C2.60723 9.0625 2.1875 9.48223 2.1875 10C2.1875 10.5178 2.60723 10.9375 3.125 10.9375Z" stroke="white" stroke-width="1.5" stroke-linecap="round" stroke-linejoin="round"/>
<path d="M10 10.9375C10.5178 10.9375 10.9375 10.5178 10.9375 10C10.9375 9.48223 10.5178 9.0625 10 9.0625C9.48223 9.0625 9.0625 9.48223 9.0625 10C9.0625 10.5178 9.48223 10.9375 10 10.9375Z" stroke="white" stroke-width="1.5" stroke-linecap="round" stroke-linejoin="round"/>
<path d="M16.875 10.9375C17.3928 10.9375 17.8125 10.5178 17.8125 10C17.8125 9.48223 17.3928 9.0625 16.875 9.0625C16.3572 9.0625 15.9375 9.48223 15.9375 10C15.9375 10.5178 16.3572 10.9375 16.875 10.9375Z" stroke="white" stroke-width="1.5" stroke-linecap="round" stroke-linejoin="round"/>
</svg>
