<svg width="23" height="21" viewBox="0 0 23 21" fill="none" xmlns="http://www.w3.org/2000/svg">
<path d="M18.6409 16.7908L17.2601 15.4783V13.7812H15.8793V16.0217L17.6647 17.7188L18.6409 16.7908Z" fill="white"/>
<path d="M16.5696 20.3438C15.6138 20.3438 14.6794 20.0743 13.8847 19.5696C13.0899 19.0648 12.4705 18.3474 12.1047 17.508C11.7389 16.6686 11.6432 15.7449 11.8297 14.8538C12.0162 13.9627 12.4764 13.1442 13.1523 12.5017C13.8282 11.8593 14.6893 11.4218 15.6268 11.2445C16.5643 11.0673 17.536 11.1582 18.4191 11.5059C19.3022 11.8536 20.057 12.4424 20.588 13.1979C21.119 13.9533 21.4025 14.8414 21.4025 15.75C21.401 16.9679 20.8914 18.1355 19.9854 18.9967C19.0793 19.8579 17.8509 20.3424 16.5696 20.3438ZM16.5696 12.4688C15.8869 12.4688 15.2195 12.6612 14.6518 13.0217C14.0841 13.3823 13.6417 13.8948 13.3804 14.4943C13.1191 15.0939 13.0508 15.7536 13.184 16.3901C13.3172 17.0266 13.6459 17.6113 14.1287 18.0702C14.6115 18.5291 15.2266 18.8416 15.8962 18.9682C16.5658 19.0948 17.2599 19.0298 17.8907 18.7815C18.5215 18.5331 19.0606 18.1126 19.4399 17.573C19.8192 17.0334 20.0217 16.399 20.0217 15.75C20.0208 14.88 19.6568 14.0459 19.0096 13.4308C18.3624 12.8156 17.4849 12.4696 16.5696 12.4688Z" fill="white"/>
<path d="M11.0465 18.375C8.84997 18.3727 6.74407 17.5423 5.19087 16.066C3.63767 14.5896 2.76404 12.5879 2.76167 10.5H1.38086C1.38378 12.9358 2.40307 15.2711 4.21509 16.9935C6.02712 18.7159 8.48392 19.6847 11.0465 19.6875V18.375Z" fill="white"/>
<path d="M8.28483 5.25007H4.88666C6.00388 4.06108 7.47486 3.22289 9.10463 2.84662C10.7344 2.47034 12.446 2.57374 14.0125 3.14311C15.5791 3.71247 16.9266 4.72093 17.8764 6.03479C18.8263 7.34865 19.3337 8.90588 19.3313 10.5001H20.7121C20.7151 8.67358 20.1445 6.88782 19.0732 5.37152C18.0019 3.85522 16.4788 2.67742 14.699 1.98901C12.9191 1.30059 10.9636 1.1329 9.0829 1.5074C7.20218 1.88191 5.48189 2.78156 4.14241 4.09113V1.31257H2.7616V6.56257H8.28483V5.25007Z" fill="white"/>
</svg>
